<?xml version="1.0" encoding="UTF-8" standalone="no"?>
<!-- Created with Inkscape (http://www.inkscape.org/) -->

<svg
   width="158.35683mm"
   height="30.654404mm"
   viewBox="0 0 197.94603 38.318004"
   version="1.1"
   id="svg1"
   xml:space="preserve"
   sodipodi:docname="Logo horizontal svg.svg"
   inkscape:export-filename="Logo horizontale petit svg.png"
   inkscape:export-xdpi="96"
   inkscape:export-ydpi="96"
   inkscape:version="1.4.2 (f4327f4, 2025-05-13)"
   xmlns:inkscape="http://www.inkscape.org/namespaces/inkscape"
   xmlns:sodipodi="http://sodipodi.sourceforge.net/DTD/sodipodi-0.dtd"
   xmlns="http://www.w3.org/2000/svg"
   xmlns:svg="http://www.w3.org/2000/svg"><sodipodi:namedview
     id="namedview1"
     pagecolor="#ffffff"
     bordercolor="#000000"
     borderopacity="0.25"
     inkscape:showpageshadow="2"
     inkscape:pageopacity="0.0"
     inkscape:pagecheckerboard="0"
     inkscape:deskcolor="#d1d1d1"
     inkscape:document-units="mm"
     inkscape:zoom="1.0826815"
     inkscape:cx="307.10786"
     inkscape:cy="100.67596"
     inkscape:window-width="1472"
     inkscape:window-height="850"
     inkscape:window-x="-6"
     inkscape:window-y="-6"
     inkscape:window-maximized="1"
     inkscape:current-layer="svg1"
     showgrid="false" /><defs
     id="defs1"><rect
       x="306.88434"
       y="507.70267"
       width="403.05087"
       height="111.72287"
       id="rect1-1-7-5-3-4-4-5" /></defs><g
     id="layer1"
     transform="matrix(0.60139853,0,0,0.60139853,36.689369,-30.132795)"
     style="stroke-width:1.66279"><path
       style="font-weight:bold;font-size:12px;font-family:'Microsoft YaHei';-inkscape-font-specification:'Microsoft YaHei, Bold';white-space:pre;stroke-width:0.864447;stroke-linejoin:round"
       d="m 309.86719,515.1848 v 3.16406 h -1.9336 v -9.07617 h 3.12305 q 3.38672,0 3.38672,2.87109 0,1.39454 -1.02539,2.23829 -1.01953,0.83789 -2.55469,0.80273 z m 0,-4.41211 v 2.92969 h 0.83789 q 1.70508,0 1.70508,-1.48242 0,-1.44727 -1.6875,-1.44727 z m 13.03711,7.57617 h -2.10938 l -0.67969,-2.08008 h -3.29882 l -0.66797,2.08008 h -2.09766 l 3.32227,-9.07617 h 2.27343 z m -3.2461,-3.57422 -1.03125,-3.14648 q -0.0996,-0.29883 -0.14062,-0.79102 h -0.0527 q -0.0351,0.39844 -0.1582,0.76758 l -1.03711,3.16992 z m 9.75,-3.91992 h -2.58984 v 7.49414 h -1.93945 v -7.49414 h -2.58399 v -1.58203 h 7.11328 z m 8.73047,7.49414 h -2.22656 l -1.42383,-2.36133 q -0.43945,-0.73242 -0.7207,-0.94335 -0.28125,-0.21094 -0.59766,-0.21094 h -0.58594 v 3.51562 h -1.93359 v -9.07617 h 3.18164 q 3.24024,0 3.24024,2.46094 0,0.92578 -0.54493,1.58789 -0.53906,0.66211 -1.48828,0.93164 v 0.0234 q 0.62696,0.21093 1.38867,1.38281 z m -5.55469,-7.60547 v 2.61329 h 0.94922 q 0.67969,0 1.08985,-0.39258 0.41601,-0.39844 0.41601,-0.99024 0,-1.23047 -1.4707,-1.23047 z m 8.37305,-1.4707 v 9.07617 h -1.93359 v -9.07617 z m 1.68164,6.79102 q 1.0957,0.9082 2.49024,0.9082 0.79101,0 1.18945,-0.26953 0.39844,-0.27539 0.39844,-0.70313 0,-0.36914 -0.31641,-0.69726 -0.31641,-0.32813 -1.66992,-0.89063 -2.12695,-0.90234 -2.12695,-2.625 0,-1.26562 0.96093,-1.96289 0.9668,-0.70312 2.55469,-0.70312 1.33008,0 2.23242,0.3457 v 1.81641 q -0.91406,-0.6211 -2.13867,-0.6211 -0.71484,0 -1.14258,0.26367 -0.42773,0.25782 -0.42773,0.69727 0,0.35156 0.29297,0.65039 0.29297,0.29297 1.44726,0.79688 1.35352,0.58007 1.85742,1.22461 0.50977,0.64453 0.50977,1.53515 0,1.30664 -0.92578,1.99219 -0.92578,0.68555 -2.63086,0.68555 -1.55859,0 -2.55469,-0.50391 z m 14.10938,1.95703 q -0.99024,0.48633 -2.58399,0.48633 -2.05078,0 -3.25781,-1.22461 -1.20117,-1.23047 -1.20117,-3.27539 0,-2.15039 1.34179,-3.51563 1.34766,-1.37109 3.47461,-1.37109 1.33008,0 2.22657,0.3457 v 1.86914 q -0.91993,-0.53906 -2.08594,-0.53906 -1.33008,0 -2.12695,0.84961 -0.79688,0.84961 -0.79688,2.2207 0,1.33594 0.75586,2.15039 0.75586,0.81445 2.04492,0.81445 1.21289,0 2.20899,-0.58593 z m 0.8789,-4.08985 q 0,-2.13281 1.24219,-3.46875 1.24805,-1.34179 3.29297,-1.34179 1.94531,0 3.12891,1.29492 1.18945,1.29492 1.18945,3.32812 0,2.1211 -1.23633,3.44532 -1.23047,1.31836 -3.22852,1.31836 -1.95117,0 -3.16992,-1.27735 -1.21875,-1.2832 -1.21875,-3.29883 z m 2.03321,-0.10546 q 0,1.32421 0.63867,2.16796 0.63867,0.83789 1.75195,0.83789 1.13672,0 1.76953,-0.80273 0.63281,-0.80859 0.63281,-2.16797 0,-1.41797 -0.61523,-2.23828 -0.61523,-0.82617 -1.73437,-0.82617 -1.13672,0 -1.79297,0.84375 -0.65039,0.84375 -0.65039,2.18555 z m 10.28906,1.35937 v 3.16406 h -1.9336 v -9.07617 h 3.12305 q 3.38672,0 3.38672,2.87109 0,1.39454 -1.02539,2.23829 -1.01953,0.83789 -2.55469,0.80273 z m 0,-4.41211 v 2.92969 h 0.83789 q 1.70508,0 1.70508,-1.48242 0,-1.44727 -1.6875,-1.44727 z m 11.32617,7.57617 h -5.37305 v -9.07617 h 5.16211 v 1.58203 h -3.22851 v 2.13867 h 3 v 1.57618 h -3 v 2.19726 h 3.43945 z"
       id="text1-1-5-9-5-9-0-6"
       transform="matrix(1.5819169,0,0,1.6571599,-420.40289,-769.50952)"
       aria-label="PATRISCOPE" /><g
       id="g2-1-3-3"
       transform="matrix(1.0080181,0,0,1.0080181,6.4451112,-90.121848)"
       style="stroke-width:1.64957"><path
         style="fill:#1777ff;fill-opacity:1;stroke:none;stroke-width:6.59825;stroke-linecap:butt;stroke-linejoin:round;stroke-dasharray:none"
         d="m 35.002864,180.34651 c 0,0 3.182138,3.3262 4.933466,4.73746 0.86653,0.69828 7.749191,3.15066 7.801995,-5.82429 0.05288,-8.98896 -0.145205,-13.76012 -0.145205,-13.76012 0,0 -0.606159,-4.50245 -5.008169,-4.44426 -4.365974,0.0578 -12.081834,-0.0667 -12.081834,-0.0667 0,0 7.408027,7.63719 11.079505,11.40298 2.949801,5.12352 -2.3315,7.48075 -6.579758,7.95496 z"
         id="path3-2-0-4-4-5-6" /><path
         style="fill:#fc193a;fill-opacity:1;stroke:none;stroke-width:6.59825;stroke-linecap:butt;stroke-linejoin:round;stroke-dasharray:none"
         d="m 30.563651,161.04394 c 0,0 -2.988701,-3.5522 -4.913853,-4.71525 -1.09112,-0.65916 -7.634431,-3.14924 -7.801984,5.82431 -0.16756,8.97355 0.145201,13.76011 0.145201,13.76011 0,0 0.734571,4.47996 5.008163,4.44426 4.366211,-0.0365 12.046052,-0.0115 12.046052,-0.0115 0,0 -7.377587,-7.50685 -11.049072,-11.27264 -0.468684,-0.48062 -3.373908,-7.7038 6.565479,-8.0293 z"
         id="path3-6-4-6-6-2" /><rect
         style="fill:#1435db;fill-opacity:1;stroke-width:0.0651358"
         id="use1-0-6-8"
         width="10.959599"
         height="23.580832"
         x="-102.01852"
         y="132.70146"
         ry="5.0160694"
         transform="matrix(0.71253714,-0.7016344,0.70211994,0.7120587,0,0)" /></g></g></svg>
